<svg width="446" height="184" viewBox="0 0 446 184" fill="none" xmlns="http://www.w3.org/2000/svg">
<g filter="url(#filter0_d_1017_576)">
<path d="M311.758 69.8876C311.684 67.0383 311.356 64.4433 310.771 62.1054C310.26 59.6951 309.457 57.7228 308.361 56.1888C308.067 55.7771 307.742 55.4221 307.39 55.1208C309.942 51.4088 313.659 49.6458 315.802 48.8896L318.072 48.0886L320.477 48.1396C327.113 48.2808 333.632 48.2452 340.034 48.0342H340.039C346.664 47.8182 353.252 47.5301 359.801 47.1703C366.521 46.7324 373.206 46.3298 379.855 45.9645H379.864C386.826 45.5862 393.822 45.3965 400.853 45.3965H414.055V58.5987C414.055 63.1679 412.997 69.2893 408.215 74.0712L408.083 74.2055L407.945 74.3348C404.729 77.3721 400.898 79.2169 396.916 80.1187L396.918 80.1204C396.901 80.1242 396.885 80.1269 396.868 80.1306C396.85 80.1348 396.831 80.1401 396.812 80.1442L396.811 80.1425C393.642 80.8624 390.4 81.1003 387.18 80.9997C386.323 80.9729 385.487 80.9672 384.67 80.9758C384.653 81.8945 384.623 82.7984 384.576 83.6867V85.8873C384.576 88.9144 384.943 91.9231 385.685 94.9365C386.721 98.7292 387.824 102.524 388.996 106.321C390.378 110.48 391.609 114.68 392.69 118.917C394.072 123.954 394.768 129.1 394.768 134.324C394.768 138.385 393.525 143.702 388.943 147.711C384.699 151.425 379.693 152.129 376.306 152.129C367.104 152.129 361.72 145.574 359.162 141.125L359.099 141.016L359.039 140.905C356.776 136.79 355.015 132.014 353.6 126.856L353.575 126.761L353.549 126.664C352.252 121.635 351.181 116.254 350.32 110.538L350.306 110.452L350.294 110.363C349.546 104.903 348.908 99.6487 348.381 94.6015L348.371 94.5045L348.361 94.4059C348.01 90.4932 347.727 86.9125 347.51 83.6714C346.367 83.5942 344.983 83.4995 343.366 83.384C340.349 83.1685 337.068 82.9529 333.526 82.736L333.381 82.7258L333.237 82.7139C329.775 82.4254 326.539 82.1738 323.529 81.9588L323.375 81.9486L323.218 81.9333C320.146 81.6407 318.207 81.4806 317.23 81.4231L311.611 81.0915C311.674 80.0754 311.725 79.0075 311.758 77.8875C311.904 75.3306 311.904 72.6636 311.758 69.8876ZM317.814 66.4081C317.832 66.6088 317.859 66.8559 317.895 67.1478C317.968 67.7319 318.004 68.097 318.004 68.2431C319.246 68.3161 321.402 68.4985 324.47 68.7907C327.538 69.0098 330.827 69.2654 334.334 69.5577C337.913 69.7768 341.238 69.9966 344.306 70.2158C347.374 70.435 349.53 70.5815 350.772 70.6546C351.283 70.6545 352.014 70.5812 352.963 70.4352C353.912 70.2891 354.863 70.2516 355.813 70.3247C356.836 70.3247 357.749 70.5087 358.553 70.874C359.429 71.2394 360.014 71.9331 360.306 72.9556C360.306 74.1246 360.379 76.5718 360.525 80.2973C360.745 84.0233 361.072 88.3342 361.51 93.2291C362.022 98.1238 362.644 103.238 363.374 108.571C364.178 113.904 365.164 118.837 366.333 123.366C367.575 127.895 369 131.621 370.607 134.543C372.182 137.283 373.95 138.739 375.911 138.91L376.306 138.927C379.593 138.927 381.34 137.578 381.546 134.881L381.566 134.324C381.566 130.233 381.017 126.214 379.921 122.269C378.899 118.251 377.73 114.269 376.415 110.324C375.173 106.306 374.004 102.288 372.908 98.2698C371.885 94.1788 371.374 90.0513 371.374 85.8873V83.367C371.447 82.1251 371.483 80.8094 371.483 79.4215C371.556 78.0334 371.629 76.7179 371.702 75.4759C371.775 74.2342 371.848 73.394 371.922 72.9556C372.433 71.1291 373.493 69.887 375.1 69.2294C376.78 68.4989 378.68 68.0609 380.799 67.9148C382.991 67.7687 385.255 67.7312 387.593 67.8043C389.931 67.8773 392.049 67.6949 393.948 67.2567C395.921 66.8183 397.565 65.9783 398.88 64.7363C400.195 63.4213 400.853 61.3749 400.853 58.5987C394.059 58.5987 387.301 58.7827 380.58 59.148C373.932 59.5132 367.247 59.9137 360.525 60.352C353.877 60.7173 347.191 61.0104 340.47 61.2296C333.821 61.4487 327.064 61.4845 320.196 61.3384C318.954 61.7768 318.223 62.3987 318.004 63.2023L317.909 63.8248C317.827 64.4687 317.785 65.1747 317.785 65.9421L317.814 66.4081Z" fill="#2F9259"/>
</g>
<g filter="url(#filter1_d_1017_576)">
<path d="M304.44 40.6928C310.145 40.8559 315.278 43.4616 318.761 48.0499L319.104 48.5158L319.547 49.1553C321.625 52.2709 322.868 55.6908 323.608 59.0191C323.802 59.8059 323.973 60.6005 324.123 61.4017C322.818 61.3871 321.509 61.3667 320.196 61.3388C318.954 61.7771 318.223 62.399 318.004 63.2027C317.858 64.0062 317.785 64.9198 317.785 65.9424C317.785 66.1617 317.822 66.5641 317.895 67.1482C317.968 67.7323 318.004 68.0974 318.004 68.2434C319.246 68.3165 321.402 68.4988 324.47 68.791C324.622 68.8019 324.776 68.814 324.929 68.825C324.934 68.948 324.939 69.071 324.943 69.1941L324.997 70.3964C325.107 73.1402 325.093 75.8343 324.948 78.4745C324.87 80.9924 324.717 83.3731 324.484 85.5952C324.414 86.5037 324.364 87.1979 324.334 87.6989C324.319 87.9501 324.31 88.1253 324.305 88.2363L324.303 88.1887L324.281 91.2396C324.238 94.2262 324.13 97.2466 323.963 100.301L323.965 100.302C323.793 104.851 323.275 109.295 322.392 113.622L322.39 113.62C321.555 118.064 320.26 122.337 318.465 126.401L318.461 126.399C316.534 130.854 313.88 134.872 310.501 138.36L310.428 138.436L310.354 138.509C306.648 142.216 302.232 144.944 297.39 146.839C292.118 148.902 286.383 149.718 280.525 149.718C273.007 149.718 265.612 148.288 259.19 144.46C253.606 141.131 249.017 136.658 245.561 131.151L245.483 131.023L245.405 130.894C242.387 125.831 240.207 120.264 238.764 114.312L238.742 114.221L238.721 114.127C238.602 113.602 238.487 113.075 238.374 112.547C239.101 110.839 239.745 109.075 240.306 107.256C242.133 101.266 243.046 95.2014 243.046 89.0645C243.046 85.5579 242.572 82.1242 241.623 78.7637C240.673 75.33 239.211 72.2986 237.238 69.6686C237.079 69.4557 236.915 69.2467 236.749 69.041L247.539 68.2434C247.831 72.1885 248.051 76.6085 248.197 81.5034C248.416 86.3983 248.745 91.3669 249.184 96.4079C249.695 101.449 250.499 106.38 251.595 111.202C252.764 116.024 254.48 120.335 256.745 124.134C259.083 127.86 262.151 130.855 265.95 133.12C269.749 135.385 274.608 136.516 280.525 136.516C285.201 136.516 289.22 135.858 292.581 134.543C295.941 133.228 298.753 131.439 301.018 129.174C303.283 126.837 305.073 124.132 306.389 121.064C307.777 117.923 308.799 114.562 309.457 110.983C310.187 107.403 310.625 103.676 310.771 99.8041C310.99 95.8593 311.101 91.9875 311.101 88.1887C311.101 87.6773 311.174 86.4709 311.32 84.5714C311.54 82.5992 311.684 80.3712 311.758 77.8878C311.904 75.331 311.904 72.6639 311.758 69.8879C311.684 67.0387 311.356 64.4436 310.771 62.1058C310.26 59.6955 309.457 57.7232 308.361 56.1892C307.265 54.6551 305.768 53.8883 303.868 53.8882C302.918 53.8882 302.041 53.9973 301.237 54.2164L301.089 54.2504C300.353 54.4557 299.744 55.1754 299.265 56.4086C301.018 62.8376 302.224 69.5223 302.882 76.4627C303.539 83.3301 303.868 90.0879 303.868 96.7362C303.868 100.17 303.393 103.714 302.443 107.367C301.566 110.947 300.142 114.198 298.169 117.12C296.27 120.042 293.859 122.454 290.936 124.353C288.087 126.252 284.653 127.202 280.636 127.202C276.252 127.202 272.599 126.215 269.677 124.243C266.827 122.197 264.525 119.53 262.772 116.243C261.092 112.955 259.849 109.266 259.046 105.175C258.242 101.011 257.695 96.846 257.403 92.6818C257.111 88.5177 256.964 84.4994 256.964 80.6276C256.964 76.7558 256.928 73.431 256.855 70.6549C256.417 69.3399 255.833 68.0603 255.102 66.8183C254.371 65.5033 253.421 64.4076 252.252 63.5309L247.539 68.2434L236.749 69.041C235.962 68.068 235.099 67.1766 234.162 66.3642L233.927 63.1857L251.014 46.0992L260.173 52.9699C262.783 54.927 264.894 57.3543 266.481 60.1245L266.915 60.883C267.762 62.4098 268.49 64.0001 269.09 65.6499L269.379 66.4798L270.001 68.3438L270.052 70.3063C270.129 73.2333 270.166 76.681 270.166 80.6276C270.166 84.1681 270.301 87.8768 270.573 91.7566C270.826 95.3691 271.301 98.9933 272.001 102.631L272.238 103.745C272.808 106.238 273.576 108.344 274.476 110.127C275.277 111.6 276.189 112.62 277.197 113.382C277.583 113.601 278.546 113.999 280.636 113.999C282.509 113.999 283.288 113.584 283.613 113.367L283.676 113.324L283.741 113.284C285.115 112.39 286.207 111.299 287.1 109.925L287.163 109.828L287.227 109.733C288.288 108.161 289.098 106.36 289.62 104.226L289.642 104.134L289.666 104.044C290.361 101.37 290.666 98.9442 290.666 96.7362C290.666 90.5235 290.358 84.1859 289.739 77.7212V77.7076C289.15 71.4856 288.074 65.5479 286.528 59.8813L285.382 55.6807L286.96 51.6229C287.889 49.2356 290.86 42.988 298.282 41.3476C300.187 40.8782 302.068 40.686 303.868 40.686L304.44 40.6928Z" fill="#2F9259"/>
</g>
<g filter="url(#filter2_d_1017_576)">
<path d="M219.376 47.8081C225.039 47.8082 230.662 48.9292 235.803 51.672L235.805 51.6703C240.542 54.0967 244.596 57.4727 247.801 61.7467C248.707 62.9543 249.532 64.2069 250.282 65.4983L247.539 68.2432C247.831 72.1883 248.051 76.6083 248.197 81.5031C248.417 86.3981 248.745 91.3666 249.184 96.4077C249.695 101.449 250.499 106.38 251.595 111.202C251.776 111.949 251.971 112.683 252.179 113.406C249.945 119.851 246.807 125.808 242.74 131.203L242.709 131.242L242.68 131.281C237.947 137.464 232.063 142.456 225.172 146.232L225.143 146.247L225.116 146.262C217.656 150.303 209.372 152.129 200.637 152.13C194.53 152.13 188.523 150.745 183.134 147.46L182.971 147.361L182.811 147.257C178.388 144.382 174.671 140.712 171.721 136.341L171.615 136.184L171.515 136.024C168.862 131.841 166.909 127.302 165.629 122.477L165.59 122.326L165.552 122.173C165.386 121.477 165.234 120.781 165.092 120.084C165.85 119.005 166.56 117.909 167.212 116.79C168.819 114.16 170.062 111.493 170.938 108.79C171.815 106.087 172.253 103.531 172.253 101.12C172.253 98.1978 171.815 95.7493 170.938 93.7768C170.062 91.8043 168.819 90.1241 167.212 88.736C167.21 88.7336 167.206 88.7316 167.204 88.7292C168.226 85.7295 169.441 82.8116 170.855 79.9828L170.904 79.8858L170.955 79.7889C173.225 75.4321 175.952 71.3778 179.13 67.6428C182.358 63.7758 185.98 60.375 190.004 57.5001C193.928 54.6781 198.171 52.4401 202.705 50.8047L203.62 50.4832C208.689 48.6873 213.967 47.8081 219.376 47.8081ZM219.376 61.0103C215.358 61.0103 211.523 61.6681 207.87 62.983C204.217 64.225 200.819 65.9784 197.678 68.2432C194.609 70.4349 191.796 73.0657 189.239 76.1342C186.682 79.1295 184.491 82.3808 182.664 85.8874C180.911 89.3941 179.522 93.0833 178.5 96.9553C177.55 100.754 177.074 104.517 177.074 108.243C177.074 111.822 177.514 115.438 178.391 119.091C179.34 122.671 180.765 125.959 182.664 128.955C184.637 131.877 187.084 134.288 190.006 136.188C193.002 138.014 196.546 138.927 200.637 138.927C207.504 138.927 213.567 137.503 218.827 134.654C224.16 131.731 228.618 127.932 232.198 123.256C235.777 118.507 238.48 113.174 240.306 107.256C242.133 101.265 243.046 95.2012 243.046 89.0642C243.046 85.5576 242.572 82.1239 241.623 78.7634C240.673 75.3297 239.211 72.2983 237.238 69.6683C235.266 67.0382 232.781 64.956 229.786 63.4218C226.864 61.8147 223.394 61.0104 219.376 61.0103ZM220.8 70.3248C224.014 70.3248 226.463 71.0199 228.143 72.4081C229.896 73.7231 231.175 75.4767 231.978 77.6682C232.782 79.7867 233.257 82.1607 233.403 84.7905C233.55 87.4206 233.623 89.9782 233.623 92.4622C233.623 96.7725 232.818 101.119 231.211 105.503C229.604 109.886 227.339 113.868 224.417 117.448C221.495 120.955 218.024 123.841 214.006 126.106C209.988 128.298 205.531 129.393 200.637 129.394C198.372 129.394 196.326 128.772 194.499 127.53C192.746 126.288 191.285 124.754 190.117 122.928C188.948 121.101 188.034 119.092 187.377 116.901C186.719 114.709 186.391 112.626 186.391 110.654C186.391 106.417 186.682 102.726 187.266 99.5845C187.851 96.4433 188.837 93.7404 190.226 91.4758C191.687 89.211 193.622 87.3844 196.033 85.9963C198.207 84.7177 200.828 83.635 203.897 82.748L205.239 82.3807C205.513 82.2711 205.849 82.0377 206.246 81.6817L206.664 81.2838C207.248 80.6265 207.54 80.2241 207.54 80.078C207.54 79.9317 207.43 79.6398 207.212 79.2022C206.993 78.6909 206.737 78.1794 206.445 77.6682C206.152 77.1568 205.859 76.6814 205.567 76.243C205.348 75.7318 205.239 75.4027 205.239 75.2566C205.239 74.0878 205.861 73.1744 207.103 72.5169C208.418 71.8596 209.916 71.3839 211.596 71.0917C213.276 70.7266 214.957 70.5083 216.637 70.4353C218.389 70.3623 219.777 70.3248 220.8 70.3248ZM220.087 84.1987C219.679 85.4748 219.218 86.292 219.135 86.4486C218.693 87.2772 218.246 87.9153 217.999 88.2547C217.478 88.971 216.928 89.6094 216.531 90.0557L216.273 90.3448L215.999 90.6186C215.237 91.3801 213.165 93.4281 210.142 94.6373L209.368 94.9468L208.56 95.1577C205.748 95.8891 203.89 96.6914 202.727 97.3753L202.674 97.4077L202.622 97.4383C202.022 97.7833 201.665 98.1355 201.39 98.5335C201.015 99.1936 200.566 100.277 200.246 101.999C199.848 104.136 199.593 106.982 199.593 110.654C199.593 111.155 199.675 111.954 200.021 113.106C200.346 114.19 200.762 115.071 201.236 115.81C201.32 115.942 201.409 116.06 201.499 116.169C203.914 116.058 205.889 115.478 207.618 114.547C210.197 113.079 212.38 111.255 214.235 109.038C216.195 106.624 217.719 103.952 218.817 100.959C219.935 97.9096 220.421 95.0978 220.421 92.4622C220.421 90.2366 220.355 87.9241 220.222 85.5235C220.194 85.0314 220.145 84.5914 220.087 84.1987Z" fill="#2F9259"/>
</g>
<g filter="url(#filter3_d_1017_576)">
<path d="M172.253 101.12C172.253 98.198 171.815 95.7495 170.938 93.7769C170.062 91.8044 168.819 90.1242 167.212 88.7362C165.678 87.3481 163.778 86.1792 161.513 85.2294C159.249 84.2798 156.801 83.3305 154.172 82.3808C157.532 78.2165 159.688 74.1612 160.638 70.2161C161.587 66.271 161.587 62.6177 160.638 59.2571C159.688 55.8235 158.043 52.792 155.706 50.162C153.368 47.4588 150.628 45.2659 147.486 43.5855C144.418 41.9053 141.129 40.8471 137.623 40.4087C134.189 39.8975 130.938 40.1155 127.869 41.0652C124.874 42.015 122.207 43.8059 119.869 46.4358C117.532 48.9928 115.925 52.4999 115.048 56.9561C115.048 58.052 115.23 60.0611 115.596 62.9832C116.034 65.8325 116.583 69.2301 117.24 73.1752C117.971 77.12 118.811 81.43 119.761 86.1053C120.71 90.708 121.77 95.3852 122.939 100.134C124.108 104.809 125.386 109.339 126.774 113.722C128.162 118.105 129.587 121.977 131.048 125.338C132.509 128.698 134.007 131.402 135.541 133.448C137.075 135.494 138.646 136.516 140.253 136.516C142.664 136.516 145.111 136.005 147.595 134.982C150.152 133.886 152.637 132.426 155.047 130.599C157.458 128.773 159.687 126.691 161.733 124.353C163.851 121.942 165.678 119.42 167.212 116.79C168.819 114.16 170.062 111.493 170.938 108.79C171.705 106.425 172.137 104.172 172.233 102.03L172.253 101.12ZM137.075 49.1756C139.778 49.1756 142.08 49.7958 143.98 51.0378C145.879 52.2066 147.339 53.8872 148.362 56.0785C149.458 58.2702 150.08 60.6815 150.226 63.3114C150.445 65.9415 150.19 68.6456 149.459 71.4218C148.729 74.1979 147.522 76.8273 145.842 79.3112C144.235 81.7221 142.079 83.8417 139.376 85.6682C136.746 87.4944 133.641 88.7369 130.061 89.3943C129.112 87.9333 128.454 86.1796 128.089 84.1342C127.723 82.0886 127.505 80.0422 127.432 77.9966C127.359 75.9509 127.359 73.9778 127.432 72.0783C127.505 70.1063 127.541 68.4629 127.541 67.1481V59.4764C127.614 57.8692 127.652 56.334 127.652 54.8728C127.725 53.4121 127.76 52.3892 127.76 51.8048C131.267 50.0516 134.372 49.1757 137.075 49.1756ZM163.143 101.467C163.071 102.322 162.747 103.485 162.172 104.955C161.587 106.563 160.747 108.316 159.651 110.215C158.628 112.115 157.459 114.051 156.144 116.023C154.829 117.923 153.441 119.64 151.98 121.174C150.591 122.636 149.203 123.731 147.815 124.462C146.427 125.119 145.222 125.155 144.199 124.571C142.957 123.986 141.788 122.855 140.692 121.174C139.596 119.421 138.572 117.521 137.623 115.476C136.746 113.43 136.017 111.383 135.432 109.338C134.848 107.293 134.555 105.65 134.555 104.408C134.555 102.435 135.139 100.644 136.308 99.037C137.55 97.4298 139.012 96.0785 140.692 94.9827C142.446 93.8869 144.346 93.0467 146.391 92.4623C148.437 91.878 150.373 91.5848 152.199 91.5848C153.806 91.5848 155.267 91.7314 156.581 92.0235C157.969 92.3157 159.139 92.8272 160.088 93.5575C161.111 94.2881 161.879 95.2747 162.391 96.5167C162.902 97.6856 163.158 99.2208 163.158 101.12L163.143 101.467ZM178.499 96.9554C177.55 100.754 177.074 104.517 177.074 108.243C177.074 111.822 177.514 115.438 178.391 119.091C178.67 120.145 178.995 121.172 179.357 122.174C179.115 122.599 178.867 123.021 178.613 123.441L178.615 123.443C178.607 123.457 178.598 123.471 178.59 123.486C178.552 123.548 178.516 123.612 178.477 123.674L178.476 123.673C176.521 126.989 174.238 130.121 171.649 133.067L171.648 133.065C169.032 136.051 166.157 138.745 163.02 141.121C159.828 143.54 156.42 145.563 152.796 147.116L152.709 147.154L152.622 147.189C148.726 148.794 144.575 149.718 140.253 149.718C132.515 149.718 127.518 144.753 124.98 141.37C122.627 138.232 120.651 134.537 118.941 130.603C117.259 126.736 115.68 122.422 114.188 117.709C112.714 113.054 111.363 108.261 110.132 103.335L110.125 103.312L110.12 103.289C108.912 98.3846 107.815 93.5459 106.831 88.7736L106.827 88.7549L106.822 88.7345C105.86 83.9976 105.006 79.6106 104.259 75.5782L104.237 75.4626L104.218 75.3452C103.555 71.3649 102.998 67.9098 102.548 64.99L102.519 64.8063L102.496 64.6209C102.139 61.7679 101.846 58.9867 101.846 56.9561V55.6704L102.094 54.4068C103.285 48.3553 105.679 42.458 110.004 37.6656L110.002 37.6639C113.726 33.4748 118.354 30.2323 123.88 28.4803L123.924 28.4667L123.966 28.4531C129.076 26.8717 134.337 26.5704 139.568 27.3494H139.566C144.594 28.0151 149.377 29.568 153.828 32.0058L153.826 32.0075C158.299 34.417 162.232 37.5616 165.571 41.39C165.592 41.4134 165.613 41.438 165.634 41.4614C165.652 41.4826 165.672 41.5031 165.69 41.5244H165.688C169.323 45.6528 171.896 50.4406 173.362 55.7384H173.36C174.998 61.5851 174.86 67.5428 173.472 73.3062C173.232 74.3048 172.943 75.2877 172.619 76.2585C173.737 77.0087 174.815 77.8356 175.841 78.7448L176.414 79.2533C178.798 81.4293 180.74 83.9688 182.221 86.8008C180.676 90.0336 179.434 93.4177 178.499 96.9554Z" fill="#2F9259"/>
</g>
<g filter="url(#filter4_d_1017_576)">
<path d="M69.0217 51.8048C70.4098 54.3618 71.9075 57.2482 73.5148 60.4628C75.1951 63.6042 76.7662 66.8555 78.2273 70.2161C79.6884 73.5766 80.8932 76.9744 81.8429 80.4081C82.7925 83.7683 83.268 86.9094 83.2681 89.8314C81.2955 89.8314 78.9202 89.8689 76.144 89.9419C73.4411 90.0149 70.8473 89.8684 68.3635 89.5032C65.8798 89.1378 63.7615 88.3335 62.0082 87.0916C60.2549 85.7766 59.3773 83.7676 59.3773 81.0645C59.3773 80.7721 59.4148 80.1873 59.4878 79.3111C59.5608 78.3617 59.5967 77.7769 59.5967 77.5578C59.962 75.9505 60.5107 73.8681 61.2412 71.3113C61.9717 68.7544 62.7744 66.1607 63.651 63.5308C64.6008 60.8276 65.5141 58.4166 66.3908 56.2979C67.3405 54.1062 68.218 52.6084 69.0217 51.8048ZM98.062 126.654C98.4272 127.457 98.8296 128.26 99.2678 129.064C99.7061 129.867 100.217 130.563 100.802 131.147C101.377 131.594 102.037 131.846 102.78 131.902L103.103 131.914C104.491 131.914 105.442 131.403 105.953 130.38C106.538 129.284 106.829 128.151 106.829 126.982C106.829 125.813 106.464 123.658 105.734 120.516C105.003 117.375 103.943 113.686 102.555 109.448C101.24 105.138 99.6691 100.425 97.8426 95.3109C96.0163 90.1971 94.0446 85.0831 91.9261 79.9693C89.8805 74.7823 87.7249 69.7777 85.4602 64.9559C83.2685 60.1342 81.0755 55.8606 78.8838 52.1347C76.6921 48.409 74.5382 45.449 72.4196 43.2573C70.3739 40.9925 68.5099 39.8594 66.8295 39.8594C65.7338 39.8594 64.747 39.9702 63.8704 40.1893C63.0671 40.4087 62.4464 41.1756 62.0082 42.4903C59.3052 45.7778 56.7849 49.9784 54.4471 55.0921C52.1823 60.1331 50.1001 65.6131 48.2006 71.5307C46.3741 77.4484 44.8031 83.5858 43.4881 89.9419C42.173 96.2979 41.0399 102.398 40.0902 108.243C39.2135 114.014 38.5932 119.312 38.228 124.134C37.9358 128.955 37.8983 132.827 38.1174 135.749C38.4096 138.598 38.921 140.242 39.6514 140.681C40.455 141.192 41.5149 140.059 42.8299 137.283C44.218 134.507 45.8982 129.831 47.8707 123.256C49.9163 116.681 52.2541 107.732 54.8841 96.4078H56.0899C61.7884 97.1384 67.195 97.9052 72.309 98.7088C77.4962 99.4394 82.6471 100.244 87.7612 101.12C88.1265 102.07 88.7471 103.64 89.6234 105.831C90.5 108.023 91.4135 110.361 92.3631 112.845C93.386 115.329 94.3367 117.704 95.2134 119.969C96.1629 122.233 96.7833 123.767 97.0757 124.571C97.3679 125.155 97.6967 125.85 98.062 126.654ZM120.031 126.982C120.031 130.453 119.139 133.708 117.601 136.593L117.599 136.591C116.196 139.252 114.022 141.589 111.116 143.154C108.244 144.7 105.372 145.116 103.103 145.116C99.4557 145.116 95.7984 143.98 92.6965 141.567L92.0485 141.064L91.4669 140.482C89.9009 138.916 88.6558 137.18 87.6778 135.387C87.0919 134.312 86.546 133.222 86.0435 132.116C85.724 131.414 85.4672 130.874 85.268 130.475L84.9279 129.797L84.6694 129.082C84.503 128.625 84.0045 127.378 83.0385 125.074L82.967 124.906L82.9007 124.734C82.0612 122.565 81.1466 120.278 80.1559 117.872L80.0929 117.717L80.0317 117.561C79.4164 115.951 78.816 114.411 78.2358 112.936C75.6564 112.533 73.0665 112.148 70.4672 111.782L70.2598 111.751C68.5285 111.479 66.7602 111.213 64.9554 110.948C63.3799 117.208 61.8998 122.586 60.515 127.048C58.5638 133.553 56.6548 139.073 54.76 142.934C53.9735 144.595 52.6746 147.112 50.6903 149.233C49.7087 150.283 47.6664 152.218 44.4779 153.281C40.7104 154.537 36.4712 154.172 32.8607 151.995L32.859 152.002C27.996 149.084 26.4978 144.274 26.1142 143.041C25.4829 141.012 25.1701 138.901 24.985 137.096L24.9663 136.917L24.9527 136.737C24.6697 132.964 24.7412 128.423 25.0496 123.334L25.0547 123.236L25.0632 123.135C25.458 117.925 26.1211 112.294 27.0377 106.26L27.0479 106.193L27.0598 106.125C28.0425 100.077 29.21 93.7905 30.5597 87.2668C31.9557 80.5194 33.6292 73.9751 35.5851 67.6379L35.6072 67.5664L35.6294 67.4967C37.6609 61.1678 39.9139 55.2228 42.4031 49.6824L42.4218 49.6433L42.4388 49.6041C44.813 44.4104 47.5135 39.6807 50.6257 35.6027C52.1357 32.659 55.027 28.9161 60.3977 27.4514L60.532 27.4157L60.6698 27.3817C62.7872 26.8524 64.8744 26.6572 66.8295 26.6572C74.1717 26.6572 79.3053 31.2385 82.0215 34.1979C85.0517 37.3574 87.7751 41.209 90.2645 45.4409C92.7332 49.6377 95.1304 54.33 97.4702 59.4764C99.8182 64.483 102.047 69.6592 104.157 75.0034C106.344 80.2868 108.385 85.5755 110.276 90.8705C112.123 96.0412 113.732 100.867 115.101 105.338C116.568 109.816 117.748 113.896 118.592 117.527C119.285 120.507 120.031 124.079 120.031 126.982Z" fill="#2F9259"/>
</g>
<g filter="url(#filter5_d_1017_576)">
<path d="M360.306 72.9556C360.013 71.9328 359.429 71.2387 358.552 70.8734C357.748 70.5081 356.835 70.3255 355.812 70.3255C354.863 70.2524 353.913 70.289 352.963 70.4351C352.013 70.5812 351.283 70.6543 350.771 70.6543C349.529 70.5812 347.374 70.4351 344.306 70.2159C341.237 69.9967 337.913 69.7775 334.333 69.5584C330.826 69.2661 327.539 69.0104 324.47 68.7913C321.402 68.499 319.247 68.3164 318.005 68.2433C318.005 68.0972 317.968 67.7319 317.895 67.1474C317.822 66.563 317.786 66.1612 317.786 65.942C317.786 64.9192 317.859 64.0059 318.005 63.2023C318.224 62.3986 318.954 61.7777 320.196 61.3393C327.064 61.4854 333.822 61.4489 340.47 61.2297C347.192 61.0105 353.876 60.7183 360.525 60.353C367.246 59.9147 373.931 59.5128 380.579 59.1475C387.301 58.7823 394.059 58.5996 400.853 58.5996C400.853 61.3758 400.195 63.4215 398.88 64.7365C397.565 65.9785 395.922 66.8187 393.949 67.257C392.049 67.6954 389.931 67.878 387.593 67.805C385.255 67.7319 382.99 67.7684 380.798 67.9146C378.68 68.0607 376.78 68.499 375.1 69.2296C373.493 69.8871 372.433 71.1291 371.922 72.9556C371.849 73.3939 371.776 74.2341 371.703 75.4761C371.63 76.7181 371.557 78.0332 371.483 79.4213C371.483 80.8094 371.447 82.1244 371.374 83.3664C371.374 84.5354 371.374 85.3755 371.374 85.8869C371.374 90.0513 371.885 94.1791 372.908 98.2703C374.004 102.289 375.173 106.307 376.415 110.325C377.73 114.27 378.899 118.252 379.922 122.27C381.018 126.215 381.566 130.233 381.566 134.325C381.566 137.393 379.812 138.927 376.305 138.927C374.187 138.927 372.287 137.466 370.607 134.544C369 131.622 367.575 127.896 366.333 123.366C365.164 118.836 364.178 113.905 363.374 108.572C362.643 103.238 362.022 98.1242 361.511 93.2293C361.073 88.3344 360.744 84.0239 360.525 80.298C360.379 76.572 360.306 74.1245 360.306 72.9556Z" fill="white"/>
</g>
<g filter="url(#filter6_d_1017_576)">
<path d="M252.252 63.5309C253.421 64.4076 254.371 65.5035 255.102 66.8185C255.832 68.0605 256.417 69.3391 256.855 70.6541C256.928 73.4303 256.965 76.7545 256.965 80.6266C256.965 84.4987 257.111 88.5169 257.403 92.6812C257.695 96.8456 258.243 101.01 259.047 105.174C259.85 109.266 261.092 112.955 262.773 116.243C264.526 119.53 266.827 122.197 269.677 124.242C272.599 126.215 276.252 127.201 280.636 127.201C284.654 127.201 288.087 126.252 290.937 124.352C293.859 122.453 296.27 120.042 298.17 117.119C300.142 114.197 301.567 110.946 302.443 107.366C303.393 103.713 303.868 100.17 303.868 96.736C303.868 90.0877 303.539 83.3298 302.882 76.4623C302.224 69.5217 301.019 62.8369 299.265 56.4077C299.777 55.0927 300.434 54.3621 301.238 54.216C302.042 53.9968 302.918 53.8872 303.868 53.8872C305.768 53.8872 307.265 54.6543 308.361 56.1885C309.457 57.7228 310.261 59.6954 310.772 62.1063C311.357 64.4442 311.685 67.0377 311.758 69.887C311.905 72.6632 311.905 75.3299 311.758 77.8869C311.685 80.3709 311.539 82.5992 311.32 84.5718C311.174 86.4713 311.101 87.6767 311.101 88.1881C311.101 91.9872 310.991 95.8593 310.772 99.8044C310.626 103.677 310.188 107.403 309.457 110.982C308.8 114.562 307.777 117.923 306.389 121.064C305.074 124.133 303.284 126.836 301.019 129.174C298.754 131.439 295.941 133.229 292.581 134.544C289.22 135.859 285.202 136.516 280.526 136.516C274.608 136.516 269.75 135.384 265.951 133.119C262.152 130.854 259.083 127.859 256.745 124.133C254.481 120.334 252.764 116.023 251.595 111.202C250.499 106.38 249.695 101.448 249.184 96.4072C248.746 91.3662 248.417 86.3982 248.198 81.5033C248.051 76.6084 247.832 72.1883 247.54 68.2432L252.252 63.5309Z" fill="white"/>
</g>
<g filter="url(#filter7_d_1017_576)">
<path d="M177.075 108.243C177.075 104.517 177.55 100.754 178.499 96.955C179.522 93.0829 180.91 89.3935 182.664 85.8866C184.49 82.3798 186.682 79.1287 189.239 76.1334C191.796 73.0649 194.609 70.4348 197.677 68.243C200.819 65.9782 204.216 64.2248 207.869 62.9828C211.522 61.6678 215.357 61.0103 219.376 61.0103C223.394 61.0103 226.864 61.8139 229.786 63.4212C232.782 64.9554 235.266 67.0376 237.238 69.6677C239.211 72.2978 240.672 75.3297 241.622 78.7635C242.572 82.1241 243.047 85.5579 243.047 89.0647C243.047 95.2016 242.133 101.265 240.307 107.256C238.48 113.174 235.777 118.507 232.197 123.256C228.617 127.932 224.161 131.731 218.828 134.653C213.567 137.502 207.504 138.927 200.636 138.927C196.545 138.927 193.002 138.014 190.006 136.187C187.084 134.288 184.636 131.877 182.664 128.955C180.764 125.959 179.34 122.672 178.39 119.092C177.513 115.439 177.075 111.822 177.075 108.243ZM186.39 110.653C186.39 112.626 186.718 114.708 187.376 116.9C188.034 119.092 188.947 121.101 190.116 122.927C191.285 124.754 192.746 126.288 194.499 127.53C196.326 128.772 198.371 129.393 200.636 129.393C205.531 129.393 209.988 128.297 214.006 126.105C218.024 123.841 221.494 120.955 224.417 117.448C227.339 113.868 229.604 109.886 231.211 105.503C232.818 101.119 233.622 96.7724 233.622 92.4619C233.622 89.9779 233.549 87.4209 233.403 84.7908C233.257 82.1607 232.782 79.7863 231.978 77.6676C231.175 75.4758 229.896 73.7224 228.143 72.4074C226.462 71.0193 224.015 70.3252 220.8 70.3252C219.777 70.3252 218.389 70.3617 216.636 70.4348C214.956 70.5078 213.275 70.727 211.595 71.0923C209.915 71.3845 208.417 71.8594 207.102 72.517C205.86 73.1745 205.239 74.0877 205.239 75.2567C205.239 75.4028 205.348 75.7315 205.568 76.2429C205.86 76.6813 206.152 77.1562 206.444 77.6676C206.736 78.179 206.992 78.6904 207.211 79.2018C207.431 79.6402 207.54 79.9324 207.54 80.0785C207.54 80.2246 207.248 80.6264 206.663 81.284C206.079 81.8684 205.604 82.2337 205.239 82.3798C201.586 83.3296 198.517 84.5351 196.033 85.9962C193.623 87.3844 191.686 89.2108 190.225 91.4756C188.837 93.7404 187.851 96.4436 187.266 99.5851C186.682 102.727 186.39 106.416 186.39 110.653Z" fill="white"/>
</g>
<g filter="url(#filter8_d_1017_576)">
<path d="M115.048 56.9564C115.925 52.4998 117.532 48.993 119.87 46.4359C122.208 43.8058 124.874 42.0159 127.87 41.0662C130.938 40.1164 134.189 39.8972 137.623 40.4086C141.13 40.847 144.418 41.9063 147.486 43.5867C150.628 45.267 153.367 47.4588 155.705 50.1619C158.043 52.792 159.687 55.824 160.637 59.2577C161.586 62.6184 161.586 66.2713 160.637 70.2165C159.687 74.1616 157.532 78.2164 154.171 82.3807C156.801 83.3305 159.248 84.2802 161.513 85.23C163.778 86.1797 165.678 87.3487 167.212 88.7368C168.819 90.1249 170.061 91.8052 170.938 93.7778C171.815 95.7504 172.253 98.1979 172.253 101.12C172.253 103.531 171.815 106.088 170.938 108.791C170.061 111.494 168.819 114.161 167.212 116.791C165.678 119.421 163.851 121.942 161.732 124.353C159.687 126.691 157.459 128.773 155.048 130.599C152.637 132.426 150.153 133.887 147.596 134.983C145.112 136.006 142.664 136.517 140.253 136.517C138.646 136.517 137.075 135.494 135.541 133.449C134.007 131.403 132.509 128.7 131.048 125.339C129.587 121.978 128.162 118.106 126.774 113.723C125.386 109.339 124.107 104.81 122.938 100.134C121.769 95.3851 120.71 90.7094 119.76 86.1067C118.811 81.4309 117.97 77.1205 117.24 73.1753C116.582 69.2302 116.034 65.833 115.596 62.9837C115.231 60.0613 115.048 58.0522 115.048 56.9564ZM134.555 104.408C134.555 105.65 134.847 107.294 135.431 109.339C136.016 111.385 136.746 113.431 137.623 115.476C138.573 117.522 139.596 119.421 140.692 121.175C141.787 122.855 142.956 123.987 144.198 124.572C145.221 125.156 146.427 125.12 147.815 124.462C149.203 123.732 150.591 122.636 151.979 121.175C153.44 119.641 154.828 117.924 156.143 116.024C157.459 114.052 158.627 112.115 159.65 110.216C160.746 108.316 161.586 106.563 162.171 104.956C162.828 103.275 163.157 101.997 163.157 101.12C163.157 99.2207 162.901 97.6864 162.39 96.5175C161.879 95.2755 161.111 94.2892 160.089 93.5586C159.139 92.8281 157.97 92.3166 156.582 92.0244C155.267 91.7322 153.806 91.5861 152.198 91.5861C150.372 91.5861 148.436 91.8783 146.39 92.4628C144.345 93.0472 142.445 93.8874 140.692 94.9833C139.011 96.0792 137.55 97.4307 136.308 99.038C135.139 100.645 134.555 102.435 134.555 104.408ZM127.541 67.148C127.541 68.4631 127.505 70.1069 127.432 72.0795C127.358 73.979 127.358 75.9516 127.432 77.9972C127.505 80.0428 127.724 82.0885 128.089 84.1341C128.454 86.1797 129.112 87.9331 130.062 89.3943C133.641 88.7368 136.746 87.4948 139.377 85.6683C142.08 83.8419 144.235 81.7232 145.842 79.3122C147.523 76.8283 148.728 74.1982 149.459 71.4219C150.189 68.6457 150.445 65.9426 150.226 63.3124C150.08 60.6823 149.459 58.2714 148.363 56.0797C147.34 53.8879 145.879 52.2076 143.979 51.0386C142.08 49.7966 139.778 49.1756 137.075 49.1756C134.372 49.1756 131.267 50.0523 127.76 51.8057C127.76 52.3902 127.724 53.413 127.651 54.8742C127.651 56.3354 127.614 57.8696 127.541 59.4769C127.541 61.0842 127.541 62.6184 127.541 64.0796C127.541 65.5407 127.541 66.5635 127.541 67.148Z" fill="white"/>
</g>
<g filter="url(#filter9_d_1017_576)">
<path d="M62.0081 42.4905C62.4464 41.1754 63.0674 40.4083 63.871 40.1891C64.7477 39.9699 65.734 39.8604 66.8299 39.8604C68.5103 39.8604 70.3732 40.9928 72.4189 43.2576C74.5376 45.4493 76.6928 48.4082 78.8846 52.1342C81.0763 55.8601 83.2681 60.1341 85.4598 64.9559C87.7246 69.7778 89.8799 74.7823 91.9255 79.9694C94.0442 85.0835 96.0168 90.1976 97.8432 95.3117C99.6697 100.426 101.24 105.138 102.555 109.449C103.944 113.686 105.003 117.375 105.734 120.517C106.464 123.658 106.829 125.814 106.829 126.983C106.829 128.151 106.537 129.284 105.953 130.38C105.441 131.403 104.492 131.914 103.103 131.914C102.227 131.914 101.46 131.658 100.802 131.147C100.218 130.562 99.7062 129.868 99.2679 129.065C98.8295 128.261 98.4277 127.457 98.0624 126.654C97.6971 125.85 97.3683 125.156 97.0761 124.572C96.7839 123.768 96.1629 122.234 95.2131 119.969C94.3364 117.704 93.3867 115.33 92.3638 112.846C91.4141 110.362 90.5008 108.024 89.6241 105.832C88.7474 103.64 88.1265 102.07 87.7612 101.12C82.6471 100.243 77.4964 99.4395 72.3093 98.7089C67.1952 97.9053 61.7889 97.1382 56.0903 96.4076H54.8849C52.2548 107.732 49.9169 116.681 47.8713 123.257C45.8987 129.832 44.2183 134.508 42.8302 137.284C41.5152 140.06 40.4558 141.192 39.6522 140.681C38.9216 140.243 38.4102 138.599 38.1179 135.75C37.8988 132.827 37.9353 128.955 38.2275 124.133C38.5928 119.311 39.2138 114.015 40.0905 108.243C41.0403 102.398 42.1727 96.298 43.4877 89.9419C44.8028 83.5858 46.3736 77.4489 48.2 71.5312C50.0995 65.6134 52.1817 60.1341 54.4465 55.093C56.7844 49.9789 59.3049 45.7781 62.0081 42.4905ZM59.378 81.0653C59.378 83.7685 60.2547 85.7776 62.0081 87.0926C63.7615 88.3346 65.8802 89.1383 68.3641 89.5036C70.8481 89.8689 73.4417 90.015 76.1449 89.9419C78.9211 89.8689 81.2955 89.8323 83.2681 89.8323C83.2681 86.91 82.7932 83.7685 81.8434 80.4078C80.8937 76.974 79.6882 73.5768 78.227 70.2161C76.7659 66.8554 75.1951 63.6043 73.5148 60.4628C71.9075 57.2483 70.4098 54.3625 69.0217 51.8054C68.218 52.609 67.3413 54.1067 66.3916 56.2985C65.5149 58.4172 64.6016 60.8281 63.6519 63.5313C62.7752 66.1614 61.9715 68.755 61.2409 71.312C60.5104 73.8691 59.9624 75.9512 59.5971 77.5585C59.5971 77.7777 59.5606 78.3622 59.4875 79.3119C59.4145 80.1886 59.378 80.7731 59.378 81.0653Z" fill="white"/>
</g>
<defs>
<filter id="filter0_d_1017_576" x="282.727" y="19.5397" width="162.356" height="162.424" filterUnits="userSpaceOnUse" color-interpolation-filters="sRGB">
<feFlood flood-opacity="0" result="BackgroundImageFix"/>
<feColorMatrix in="SourceAlpha" type="matrix" values="0 0 0 0 0 0 0 0 0 0 0 0 0 0 0 0 0 0 127 0" result="hardAlpha"/>
<feOffset dx="3.18237" dy="1.98898"/>
<feGaussianBlur stdDeviation="13.9229"/>
<feComposite in2="hardAlpha" operator="out"/>
<feColorMatrix type="matrix" values="0 0 0 0 0.321569 0 0 0 0 0.607843 0 0 0 0 0.309804 0 0 0 1 0"/>
<feBlend mode="normal" in2="BackgroundImageFix" result="effect1_dropShadow_1017_576"/>
<feBlend mode="normal" in="SourceGraphic" in2="effect1_dropShadow_1017_576" result="shape"/>
</filter>
<filter id="filter1_d_1017_576" x="209.264" y="14.8292" width="146.834" height="164.724" filterUnits="userSpaceOnUse" color-interpolation-filters="sRGB">
<feFlood flood-opacity="0" result="BackgroundImageFix"/>
<feColorMatrix in="SourceAlpha" type="matrix" values="0 0 0 0 0 0 0 0 0 0 0 0 0 0 0 0 0 0 127 0" result="hardAlpha"/>
<feOffset dx="3.18237" dy="1.98898"/>
<feGaussianBlur stdDeviation="13.9229"/>
<feComposite in2="hardAlpha" operator="out"/>
<feColorMatrix type="matrix" values="0 0 0 0 0.321569 0 0 0 0 0.607843 0 0 0 0 0.309804 0 0 0 1 0"/>
<feBlend mode="normal" in2="BackgroundImageFix" result="effect1_dropShadow_1017_576"/>
<feBlend mode="normal" in="SourceGraphic" in2="effect1_dropShadow_1017_576" result="shape"/>
</filter>
<filter id="filter2_d_1017_576" x="140.428" y="21.9513" width="142.779" height="160.013" filterUnits="userSpaceOnUse" color-interpolation-filters="sRGB">
<feFlood flood-opacity="0" result="BackgroundImageFix"/>
<feColorMatrix in="SourceAlpha" type="matrix" values="0 0 0 0 0 0 0 0 0 0 0 0 0 0 0 0 0 0 127 0" result="hardAlpha"/>
<feOffset dx="3.18237" dy="1.98898"/>
<feGaussianBlur stdDeviation="13.9229"/>
<feComposite in2="hardAlpha" operator="out"/>
<feColorMatrix type="matrix" values="0 0 0 0 0.321569 0 0 0 0 0.607843 0 0 0 0 0.309804 0 0 0 1 0"/>
<feBlend mode="normal" in2="BackgroundImageFix" result="effect1_dropShadow_1017_576"/>
<feBlend mode="normal" in="SourceGraphic" in2="effect1_dropShadow_1017_576" result="shape"/>
</filter>
<filter id="filter3_d_1017_576" x="77.1825" y="1.08022" width="136.066" height="178.473" filterUnits="userSpaceOnUse" color-interpolation-filters="sRGB">
<feFlood flood-opacity="0" result="BackgroundImageFix"/>
<feColorMatrix in="SourceAlpha" type="matrix" values="0 0 0 0 0 0 0 0 0 0 0 0 0 0 0 0 0 0 127 0" result="hardAlpha"/>
<feOffset dx="3.18237" dy="1.98898"/>
<feGaussianBlur stdDeviation="13.9229"/>
<feComposite in2="hardAlpha" operator="out"/>
<feColorMatrix type="matrix" values="0 0 0 0 0.321569 0 0 0 0 0.607843 0 0 0 0 0.309804 0 0 0 1 0"/>
<feBlend mode="normal" in2="BackgroundImageFix" result="effect1_dropShadow_1017_576"/>
<feBlend mode="normal" in="SourceGraphic" in2="effect1_dropShadow_1017_576" result="shape"/>
</filter>
<filter id="filter4_d_1017_576" x="0.111502" y="0.800437" width="150.948" height="183.034" filterUnits="userSpaceOnUse" color-interpolation-filters="sRGB">
<feFlood flood-opacity="0" result="BackgroundImageFix"/>
<feColorMatrix in="SourceAlpha" type="matrix" values="0 0 0 0 0 0 0 0 0 0 0 0 0 0 0 0 0 0 127 0" result="hardAlpha"/>
<feOffset dx="3.18237" dy="1.98898"/>
<feGaussianBlur stdDeviation="13.9229"/>
<feComposite in2="hardAlpha" operator="out"/>
<feColorMatrix type="matrix" values="0 0 0 0 0.321569 0 0 0 0 0.607843 0 0 0 0 0.309804 0 0 0 1 0"/>
<feBlend mode="normal" in2="BackgroundImageFix" result="effect1_dropShadow_1017_576"/>
<feBlend mode="normal" in="SourceGraphic" in2="effect1_dropShadow_1017_576" result="shape"/>
</filter>
<filter id="filter5_d_1017_576" x="293.122" y="32.7428" width="138.759" height="136.019" filterUnits="userSpaceOnUse" color-interpolation-filters="sRGB">
<feFlood flood-opacity="0" result="BackgroundImageFix"/>
<feColorMatrix in="SourceAlpha" type="matrix" values="0 0 0 0 0 0 0 0 0 0 0 0 0 0 0 0 0 0 127 0" result="hardAlpha"/>
<feOffset dx="3.18237" dy="1.98898"/>
<feGaussianBlur stdDeviation="13.9229"/>
<feComposite in2="hardAlpha" operator="out"/>
<feColorMatrix type="matrix" values="0 0 0 0 0.321569 0 0 0 0 0.607843 0 0 0 0 0.309804 0 0 0 1 0"/>
<feBlend mode="normal" in2="BackgroundImageFix" result="effect1_dropShadow_1017_576"/>
<feBlend mode="normal" in="SourceGraphic" in2="effect1_dropShadow_1017_576" result="shape"/>
</filter>
<filter id="filter6_d_1017_576" x="222.877" y="28.0304" width="120.02" height="138.32" filterUnits="userSpaceOnUse" color-interpolation-filters="sRGB">
<feFlood flood-opacity="0" result="BackgroundImageFix"/>
<feColorMatrix in="SourceAlpha" type="matrix" values="0 0 0 0 0 0 0 0 0 0 0 0 0 0 0 0 0 0 127 0" result="hardAlpha"/>
<feOffset dx="3.18237" dy="1.98898"/>
<feGaussianBlur stdDeviation="13.9229"/>
<feComposite in2="hardAlpha" operator="out"/>
<feColorMatrix type="matrix" values="0 0 0 0 0.321569 0 0 0 0 0.607843 0 0 0 0 0.309804 0 0 0 1 0"/>
<feBlend mode="normal" in2="BackgroundImageFix" result="effect1_dropShadow_1017_576"/>
<feBlend mode="normal" in="SourceGraphic" in2="effect1_dropShadow_1017_576" result="shape"/>
</filter>
<filter id="filter7_d_1017_576" x="152.411" y="35.1535" width="121.663" height="133.609" filterUnits="userSpaceOnUse" color-interpolation-filters="sRGB">
<feFlood flood-opacity="0" result="BackgroundImageFix"/>
<feColorMatrix in="SourceAlpha" type="matrix" values="0 0 0 0 0 0 0 0 0 0 0 0 0 0 0 0 0 0 127 0" result="hardAlpha"/>
<feOffset dx="3.18237" dy="1.98898"/>
<feGaussianBlur stdDeviation="13.9229"/>
<feComposite in2="hardAlpha" operator="out"/>
<feColorMatrix type="matrix" values="0 0 0 0 0.321569 0 0 0 0 0.607843 0 0 0 0 0.309804 0 0 0 1 0"/>
<feBlend mode="normal" in2="BackgroundImageFix" result="effect1_dropShadow_1017_576"/>
<feBlend mode="normal" in="SourceGraphic" in2="effect1_dropShadow_1017_576" result="shape"/>
</filter>
<filter id="filter8_d_1017_576" x="90.3847" y="14.2833" width="112.896" height="152.069" filterUnits="userSpaceOnUse" color-interpolation-filters="sRGB">
<feFlood flood-opacity="0" result="BackgroundImageFix"/>
<feColorMatrix in="SourceAlpha" type="matrix" values="0 0 0 0 0 0 0 0 0 0 0 0 0 0 0 0 0 0 127 0" result="hardAlpha"/>
<feOffset dx="3.18237" dy="1.98898"/>
<feGaussianBlur stdDeviation="13.9229"/>
<feComposite in2="hardAlpha" operator="out"/>
<feColorMatrix type="matrix" values="0 0 0 0 0.321569 0 0 0 0 0.607843 0 0 0 0 0.309804 0 0 0 1 0"/>
<feBlend mode="normal" in2="BackgroundImageFix" result="effect1_dropShadow_1017_576"/>
<feBlend mode="normal" in="SourceGraphic" in2="effect1_dropShadow_1017_576" result="shape"/>
</filter>
<filter id="filter9_d_1017_576" x="13.3137" y="14.0036" width="124.544" height="156.631" filterUnits="userSpaceOnUse" color-interpolation-filters="sRGB">
<feFlood flood-opacity="0" result="BackgroundImageFix"/>
<feColorMatrix in="SourceAlpha" type="matrix" values="0 0 0 0 0 0 0 0 0 0 0 0 0 0 0 0 0 0 127 0" result="hardAlpha"/>
<feOffset dx="3.18237" dy="1.98898"/>
<feGaussianBlur stdDeviation="13.9229"/>
<feComposite in2="hardAlpha" operator="out"/>
<feColorMatrix type="matrix" values="0 0 0 0 0.321569 0 0 0 0 0.607843 0 0 0 0 0.309804 0 0 0 1 0"/>
<feBlend mode="normal" in2="BackgroundImageFix" result="effect1_dropShadow_1017_576"/>
<feBlend mode="normal" in="SourceGraphic" in2="effect1_dropShadow_1017_576" result="shape"/>
</filter>
</defs>
</svg>
