<svg width="263" height="68" viewBox="0 0 263 68" fill="none" xmlns="http://www.w3.org/2000/svg">
<g clip-path="url(#clip0_1215_20)">
<g filter="url(#filter0_i_1215_20)">
<path d="M220.895 8.70963L36.7724 13.1169C30.1242 13.276 23.5692 14.7159 17.4665 17.3576L8.49106 21.2428C3.30224 23.4889 2.04657 30.2788 6.08891 34.2321L9.9647 38.0225C19.0733 46.9304 31.1497 52.1624 43.8782 52.7152L201.998 59.5827C210.647 59.9583 219.251 58.1569 227.022 54.3436L227.666 54.0279C236.314 49.7845 243.605 43.2099 248.717 35.0452L254.594 25.6586C258.583 19.2874 254.334 10.9644 246.834 10.4586L220.895 8.70963Z" fill="#D79644"/>
</g>
<path d="M246.754 11.6493L220.87 9.90401L36.8006 14.3097C30.306 14.4652 23.9019 15.8719 17.9401 18.4526L8.96496 22.3381C4.5546 24.2473 3.48764 30.0188 6.92359 33.3791L10.7995 37.1689C19.6979 45.8712 31.4956 50.9831 43.9303 51.5231L202.05 58.3903C210.499 58.7572 218.905 56.9976 226.497 53.2724L227.141 52.9566C235.589 48.8112 242.711 42.3884 247.705 34.4124L253.582 25.0257C257.093 19.4193 253.354 12.0946 246.754 11.6493Z" stroke="#633300" stroke-width="2.38678"/>
<g filter="url(#filter1_i_1215_20)">
<path d="M241.271 17.8474C231.957 19.5614 231.448 25.0476 228.337 37.217C225.705 47.51 222.696 51.2552 221.621 52.1514C221.492 52.2289 221.365 52.305 221.24 52.3798C221.294 52.3834 221.425 52.3147 221.621 52.1514C226.642 49.1365 234.864 44.0655 235.681 38.9669C236.73 32.4297 240.691 18.7281 241.271 17.8474Z" fill="#ECC57A"/>
</g>
<g filter="url(#filter2_i_1215_20)">
<path d="M215.63 18.9075C206.316 20.6215 205.808 26.1076 202.696 38.2771C200.065 48.5701 197.055 52.3153 195.981 53.2114C195.851 53.2889 195.724 53.3651 195.6 53.4399C195.653 53.4435 195.785 53.3748 195.981 53.2114C201.001 50.1966 209.223 45.1256 210.041 40.0269C211.089 33.4898 215.05 19.7881 215.63 18.9075Z" fill="#ECC57A"/>
</g>
<g filter="url(#filter3_i_1215_20)">
<path d="M190.123 17.9861C180.81 19.7001 180.301 25.1863 177.19 37.3557C174.558 47.6487 171.549 51.3939 170.474 52.29C170.345 52.3675 170.218 52.4437 170.093 52.5185C170.146 52.5221 170.278 52.4534 170.474 52.29C175.495 49.2752 183.717 44.2042 184.534 39.1056C185.582 32.5684 189.543 18.8667 190.123 17.9861Z" fill="#ECC57A"/>
</g>
<g filter="url(#filter4_i_1215_20)">
<path d="M163.95 18.6135C155.23 20.1854 154.759 25.2447 151.857 36.4654C149.402 45.9561 146.588 49.4073 145.582 50.2328C145.462 50.3041 145.343 50.3743 145.226 50.4431C145.276 50.4465 145.399 50.3832 145.582 50.2328C150.281 47.4571 157.976 42.788 158.736 38.0864C159.712 32.0583 163.408 19.4252 163.95 18.6135Z" fill="#ECC57A"/>
</g>
<path d="M246.287 12.2038L232.581 11.2796L196.627 11.8454L171.257 12.3276L145.909 13.2099L114.941 14.112L83.4129 14.9765L46.4768 15.9065L44.2002 15.9611C43.4824 15.9783 43.0492 16.8076 43.4625 17.3732V17.3732C45.1446 19.6756 47.9114 20.9214 50.8329 20.6921L83.1988 18.1515L114.74 17.0889L145.655 16.9804L171.083 14.9074L196.438 14.6516L221.558 14.324L244.42 15.1348C245.672 15.1792 246.859 14.4322 247.39 13.2656V13.2656C247.604 12.7935 247.306 12.2729 246.801 12.2386L246.287 12.2038Z" fill="#EAB16E"/>
<g filter="url(#filter5_i_1215_20)">
<path d="M57.4854 18.2117C49.2172 19.5798 48.7897 24.09 46.0794 34.0857C43.787 42.5402 41.1296 45.6073 40.1787 46.3396C40.0643 46.4027 39.9518 46.4648 39.8414 46.5258C39.8887 46.529 40.0054 46.473 40.1787 46.3396C44.6264 43.8823 51.9098 39.748 52.6135 35.5579C53.5156 30.1857 56.974 18.9334 57.4854 18.2117Z" fill="#ECC57A"/>
</g>
<g filter="url(#filter6_i_1215_20)">
<path d="M87.5215 18.6433C78.3708 20.1081 77.9054 24.9838 74.9226 35.7864C72.3997 44.9234 69.4631 48.2348 68.4118 49.0249C68.2853 49.093 68.1609 49.1599 68.0387 49.2256C68.0911 49.2291 68.2201 49.1689 68.4118 49.0249C73.3313 46.3758 81.3869 41.9186 82.1585 37.3896C83.1478 31.5826 86.9566 19.4228 87.5215 18.6433Z" fill="#ECC57A"/>
</g>
<g filter="url(#filter7_i_1215_20)">
<path d="M113.641 18.8093C104.198 20.2804 103.724 25.2169 100.66 36.1515C98.0679 45.4002 95.0413 48.7494 93.9572 49.548C93.8268 49.6168 93.6984 49.6844 93.5724 49.7508C93.6265 49.7544 93.7596 49.6936 93.9572 49.548C99.0314 46.8722 107.34 42.3695 108.131 37.7845C109.144 31.9057 113.059 19.5979 113.641 18.8093Z" fill="#ECC57A"/>
</g>
<g filter="url(#filter8_i_1215_20)">
<path d="M137.83 18.447C129.108 20.0448 128.633 25.1652 125.721 36.5228C123.259 46.1292 120.442 49.6242 119.435 50.4603C119.315 50.5327 119.196 50.6037 119.079 50.6735C119.129 50.6769 119.252 50.6128 119.435 50.4603C124.137 47.6475 131.835 42.9163 132.6 38.1576C133.58 32.0564 137.287 19.2688 137.83 18.447Z" fill="#ECC57A"/>
</g>
</g>
<defs>
<filter id="filter0_i_1215_20" x="3.69373" y="7.11853" width="254.02" height="52.5128" filterUnits="userSpaceOnUse" color-interpolation-filters="sRGB">
<feFlood flood-opacity="0" result="BackgroundImageFix"/>
<feBlend mode="normal" in="SourceGraphic" in2="BackgroundImageFix" result="shape"/>
<feColorMatrix in="SourceAlpha" type="matrix" values="0 0 0 0 0 0 0 0 0 0 0 0 0 0 0 0 0 0 127 0" result="hardAlpha"/>
<feOffset dx="19.8898" dy="-6.36475"/>
<feGaussianBlur stdDeviation="0.795593"/>
<feComposite in2="hardAlpha" operator="arithmetic" k2="-1" k3="1"/>
<feColorMatrix type="matrix" values="0 0 0 0 0.807843 0 0 0 0 0.509804 0 0 0 0 0.2 0 0 0 1 0"/>
<feBlend mode="normal" in2="shape" result="effect1_innerShadow_1215_20"/>
</filter>
<filter id="filter1_i_1215_20" x="221.24" y="17.8474" width="20.0302" height="34.5325" filterUnits="userSpaceOnUse" color-interpolation-filters="sRGB">
<feFlood flood-opacity="0" result="BackgroundImageFix"/>
<feBlend mode="normal" in="SourceGraphic" in2="BackgroundImageFix" result="shape"/>
<feColorMatrix in="SourceAlpha" type="matrix" values="0 0 0 0 0 0 0 0 0 0 0 0 0 0 0 0 0 0 127 0" result="hardAlpha"/>
<feOffset dx="3.97797" dy="1.59119"/>
<feComposite in2="hardAlpha" operator="arithmetic" k2="-1" k3="1"/>
<feColorMatrix type="matrix" values="0 0 0 0 1 0 0 0 0 0.878431 0 0 0 0 0.627451 0 0 0 1 0"/>
<feBlend mode="normal" in2="shape" result="effect1_innerShadow_1215_20"/>
</filter>
<filter id="filter2_i_1215_20" x="195.6" y="18.9075" width="20.0302" height="34.5325" filterUnits="userSpaceOnUse" color-interpolation-filters="sRGB">
<feFlood flood-opacity="0" result="BackgroundImageFix"/>
<feBlend mode="normal" in="SourceGraphic" in2="BackgroundImageFix" result="shape"/>
<feColorMatrix in="SourceAlpha" type="matrix" values="0 0 0 0 0 0 0 0 0 0 0 0 0 0 0 0 0 0 127 0" result="hardAlpha"/>
<feOffset dx="3.97797" dy="1.59119"/>
<feComposite in2="hardAlpha" operator="arithmetic" k2="-1" k3="1"/>
<feColorMatrix type="matrix" values="0 0 0 0 1 0 0 0 0 0.878431 0 0 0 0 0.627451 0 0 0 1 0"/>
<feBlend mode="normal" in2="shape" result="effect1_innerShadow_1215_20"/>
</filter>
<filter id="filter3_i_1215_20" x="170.093" y="17.9861" width="20.0302" height="34.5325" filterUnits="userSpaceOnUse" color-interpolation-filters="sRGB">
<feFlood flood-opacity="0" result="BackgroundImageFix"/>
<feBlend mode="normal" in="SourceGraphic" in2="BackgroundImageFix" result="shape"/>
<feColorMatrix in="SourceAlpha" type="matrix" values="0 0 0 0 0 0 0 0 0 0 0 0 0 0 0 0 0 0 127 0" result="hardAlpha"/>
<feOffset dx="3.97797" dy="1.59119"/>
<feComposite in2="hardAlpha" operator="arithmetic" k2="-1" k3="1"/>
<feColorMatrix type="matrix" values="0 0 0 0 1 0 0 0 0 0.878431 0 0 0 0 0.627451 0 0 0 1 0"/>
<feBlend mode="normal" in2="shape" result="effect1_innerShadow_1215_20"/>
</filter>
<filter id="filter4_i_1215_20" x="145.226" y="18.6135" width="18.724" height="31.8296" filterUnits="userSpaceOnUse" color-interpolation-filters="sRGB">
<feFlood flood-opacity="0" result="BackgroundImageFix"/>
<feBlend mode="normal" in="SourceGraphic" in2="BackgroundImageFix" result="shape"/>
<feColorMatrix in="SourceAlpha" type="matrix" values="0 0 0 0 0 0 0 0 0 0 0 0 0 0 0 0 0 0 127 0" result="hardAlpha"/>
<feOffset dx="3.97797" dy="1.59119"/>
<feComposite in2="hardAlpha" operator="arithmetic" k2="-1" k3="1"/>
<feColorMatrix type="matrix" values="0 0 0 0 1 0 0 0 0 0.878431 0 0 0 0 0.627451 0 0 0 1 0"/>
<feBlend mode="normal" in2="shape" result="effect1_innerShadow_1215_20"/>
</filter>
<filter id="filter5_i_1215_20" x="39.8414" y="18.2117" width="17.644" height="28.3142" filterUnits="userSpaceOnUse" color-interpolation-filters="sRGB">
<feFlood flood-opacity="0" result="BackgroundImageFix"/>
<feBlend mode="normal" in="SourceGraphic" in2="BackgroundImageFix" result="shape"/>
<feColorMatrix in="SourceAlpha" type="matrix" values="0 0 0 0 0 0 0 0 0 0 0 0 0 0 0 0 0 0 127 0" result="hardAlpha"/>
<feOffset dx="3.97797" dy="1.59119"/>
<feComposite in2="hardAlpha" operator="arithmetic" k2="-1" k3="1"/>
<feColorMatrix type="matrix" values="0 0 0 0 1 0 0 0 0 0.878431 0 0 0 0 0.627451 0 0 0 1 0"/>
<feBlend mode="normal" in2="shape" result="effect1_innerShadow_1215_20"/>
</filter>
<filter id="filter6_i_1215_20" x="68.0387" y="18.6433" width="19.4828" height="30.5825" filterUnits="userSpaceOnUse" color-interpolation-filters="sRGB">
<feFlood flood-opacity="0" result="BackgroundImageFix"/>
<feBlend mode="normal" in="SourceGraphic" in2="BackgroundImageFix" result="shape"/>
<feColorMatrix in="SourceAlpha" type="matrix" values="0 0 0 0 0 0 0 0 0 0 0 0 0 0 0 0 0 0 127 0" result="hardAlpha"/>
<feOffset dx="3.97797" dy="1.59119"/>
<feComposite in2="hardAlpha" operator="arithmetic" k2="-1" k3="1"/>
<feColorMatrix type="matrix" values="0 0 0 0 1 0 0 0 0 0.878431 0 0 0 0 0.627451 0 0 0 1 0"/>
<feBlend mode="normal" in2="shape" result="effect1_innerShadow_1215_20"/>
</filter>
<filter id="filter7_i_1215_20" x="93.5724" y="18.8093" width="20.069" height="30.9417" filterUnits="userSpaceOnUse" color-interpolation-filters="sRGB">
<feFlood flood-opacity="0" result="BackgroundImageFix"/>
<feBlend mode="normal" in="SourceGraphic" in2="BackgroundImageFix" result="shape"/>
<feColorMatrix in="SourceAlpha" type="matrix" values="0 0 0 0 0 0 0 0 0 0 0 0 0 0 0 0 0 0 127 0" result="hardAlpha"/>
<feOffset dx="3.97797" dy="1.59119"/>
<feComposite in2="hardAlpha" operator="arithmetic" k2="-1" k3="1"/>
<feColorMatrix type="matrix" values="0 0 0 0 1 0 0 0 0 0.878431 0 0 0 0 0.627451 0 0 0 1 0"/>
<feBlend mode="normal" in2="shape" result="effect1_innerShadow_1215_20"/>
</filter>
<filter id="filter8_i_1215_20" x="119.079" y="18.447" width="18.7508" height="32.2266" filterUnits="userSpaceOnUse" color-interpolation-filters="sRGB">
<feFlood flood-opacity="0" result="BackgroundImageFix"/>
<feBlend mode="normal" in="SourceGraphic" in2="BackgroundImageFix" result="shape"/>
<feColorMatrix in="SourceAlpha" type="matrix" values="0 0 0 0 0 0 0 0 0 0 0 0 0 0 0 0 0 0 127 0" result="hardAlpha"/>
<feOffset dx="3.97797" dy="1.59119"/>
<feComposite in2="hardAlpha" operator="arithmetic" k2="-1" k3="1"/>
<feColorMatrix type="matrix" values="0 0 0 0 1 0 0 0 0 0.878431 0 0 0 0 0.627451 0 0 0 1 0"/>
<feBlend mode="normal" in2="shape" result="effect1_innerShadow_1215_20"/>
</filter>
<clipPath id="clip0_1215_20">
<rect width="263" height="68" fill="white"/>
</clipPath>
</defs>
</svg>
