<svg width="430" height="648" viewBox="0 0 430 648" fill="none" xmlns="http://www.w3.org/2000/svg">
<path d="M539 412.649L445.396 436.347L441.312 479.752V522.196C442.401 525.322 443.072 529.025 443.072 531.516C443.072 536.593 440.288 540.71 436.854 540.71C433.421 540.71 430.638 536.593 430.638 531.516C430.638 528.936 431.357 525.057 432.515 521.864V479.752L428.922 440.518L359.435 458.11L356.153 513.94V570.034H356.126C357.018 572.594 357.568 575.627 357.568 577.667C357.568 581.822 355.29 585.191 352.479 585.191C349.669 585.191 347.391 581.823 347.391 577.667C347.391 575.574 347.969 572.436 348.901 569.837V513.94L345.904 461.536L292.349 475.095L288.105 487.5V499.132C289.194 502.258 289.865 505.96 289.865 508.451C289.865 513.529 287.081 517.645 283.647 517.646C280.214 517.645 277.43 513.528 277.43 508.451C277.43 505.871 278.15 501.991 279.308 498.799V487.5L276.513 479.104L177.568 504.155L174.667 549.944V594.219C175.431 597.478 175.903 601.339 175.903 603.937C175.903 609.233 173.947 613.526 171.534 613.526C169.121 613.526 167.165 609.233 167.165 603.937C167.165 601.245 167.671 597.198 168.484 593.868V549.944L165.843 507.124L152.237 510.569L146.747 568.92V623.983C148.159 628.039 149.029 632.842 149.029 636.073C149.029 642.66 145.418 648 140.964 648C136.509 648 132.898 642.66 132.898 636.073C132.898 632.727 133.832 627.696 135.333 623.555V568.92L130.495 516.074L73.8164 530.425L70.915 561.26V591.688C71.6951 593.93 72.1768 596.584 72.1768 598.37C72.1766 602.01 70.1812 604.961 67.7197 604.961C65.2581 604.961 63.2619 602.01 63.2617 598.37C63.2617 596.521 63.778 593.741 64.6074 591.452V561.26L62.0566 533.401L29.0703 541.754L24.8613 586.492V628.935C25.9496 632.061 26.6211 635.764 26.6211 638.255C26.6211 643.332 23.8371 647.448 20.4033 647.448C16.9699 647.448 14.1865 643.332 14.1865 638.255C14.1866 635.675 14.9059 631.795 16.0635 628.603V586.492L12.3545 545.986L-5.90723 550.61L-73 27.9619L471.907 -109.999L539 412.649Z" fill="white"/>
</svg>
