<svg width="370" height="86" viewBox="0 0 370 86" fill="none" xmlns="http://www.w3.org/2000/svg">
<path d="M0.629395 63.8728C1.18922 63.7513 1.688 63.3415 1.83447 62.6384L5.1333 46.8035C5.47101 45.1825 7.7741 45.1482 8.15967 46.7585C8.50901 48.2169 10.5194 48.3794 11.0981 46.9958L13.1274 42.1433C13.7245 40.716 15.7989 40.8837 16.1587 42.3884L17.7974 49.2419C18.188 50.8753 20.5102 50.8797 20.9067 49.2478L21.8911 45.197C22.2902 43.5556 24.6316 43.5739 25.0054 45.2214L26.6802 52.6023C27.0275 54.1329 29.1413 54.2996 29.7241 52.8425L33.646 43.0349C34.2497 41.525 36.459 41.775 36.7104 43.3816L42.1597 78.1921C42.4474 80.0307 45.1118 79.979 45.3276 78.1306L47.9702 55.5027C48.1799 53.7076 50.7403 53.5831 51.1226 55.3494L51.5679 57.4119C51.9201 59.0408 54.2178 59.1125 54.6704 57.5085L57.8081 46.3894C58.2944 44.6661 60.8131 44.9219 60.9429 46.7078L63.6802 84.3708C63.821 86.308 66.6428 86.3667 66.8638 84.4373L71.1206 47.2156C71.3064 45.5911 73.5228 45.2589 74.1763 46.7576L75.3735 49.5037C75.9819 50.8993 78.0109 50.7362 78.3882 49.2615L79.0562 46.6482C79.4835 44.9764 81.8902 45.0734 82.1821 46.7742L83.4165 53.9656C83.7037 55.6383 86.0556 55.7703 86.5288 54.1404L90.7642 39.5515C91.1538 38.2096 92.9565 37.9771 93.6733 39.1765L98.2358 46.8123C98.8603 47.8571 100.376 47.8491 100.99 46.7976L104.234 41.2371C104.973 39.9692 106.887 40.2836 107.182 41.7214L109.218 51.6609C109.541 53.2354 111.725 53.403 112.285 51.8962L116.426 40.738C116.969 39.2764 119.07 39.3767 119.471 40.8835L125.448 63.325C125.84 64.7986 127.876 64.9387 128.467 63.533L130.02 59.8406C130.67 58.2956 132.957 58.6631 133.089 60.3337L134.303 75.6892C134.451 77.5603 137.145 77.6898 137.472 75.8416L140.16 60.6765C140.427 59.1697 142.626 59.2875 142.731 60.8142C142.826 62.1943 144.727 62.4867 145.232 61.199L147.369 55.7507C147.964 54.2321 150.184 54.4752 150.437 56.0867L151.204 60.9724C151.446 62.5179 153.577 62.7505 154.147 61.2937C154.73 59.8043 156.917 60.0896 157.098 61.6785L158.654 75.3708C158.871 77.2815 161.656 77.2542 161.835 75.3396L164.253 49.4656C164.423 47.6514 167.009 47.4873 167.407 49.2654L169.118 56.9128C169.488 58.5689 171.843 58.5837 172.234 56.9324L174.575 47.0505C174.976 45.3545 177.416 45.4329 177.708 47.1511L178.458 51.5808C178.741 53.2439 181.072 53.3936 181.565 51.78L182.906 47.3865C183.427 45.6807 185.927 45.9789 186.032 47.7595L187.12 66.2039C187.233 68.131 190.032 68.2436 190.3 66.3318L192.355 51.6931C192.614 49.8505 195.28 49.8604 195.525 51.7048L195.62 52.4197C195.857 54.2053 198.406 54.2968 198.771 52.533L200.054 46.322C200.391 44.6947 202.679 44.5966 203.154 46.1892L203.286 46.6335C203.729 48.1208 205.817 48.1691 206.329 46.7039L207.417 43.5857C207.963 42.0192 210.239 42.2192 210.504 43.8572L213.571 62.8103C213.847 64.5153 216.255 64.6327 216.696 62.9626L220.146 49.8855C220.588 48.2111 223.054 48.5314 223.054 50.2634V53.4392C223.054 54.9079 225.126 55.1166 225.47 53.7664L225.525 53.4968C225.865 52.1611 227.909 52.3433 227.942 53.7947L228.36 72.2449C228.399 73.9672 230.759 74.419 231.431 72.8328L232.45 70.4294C232.501 70.3094 232.536 70.1832 232.556 70.0544L235.094 53.9353L235.868 51.2146C236.188 50.0889 237.787 50.0981 238.094 51.2273C238.121 51.3261 238.135 51.4286 238.135 51.531V55.5349L238.958 65.075C239.049 66.1356 240.542 66.2808 240.835 65.2576L242.626 59.0183C243.007 57.6925 244.934 57.8494 245.095 59.2195C245.274 60.7363 247.49 60.6932 247.61 59.1707L248.204 51.6218C248.336 49.9444 250.715 49.7446 251.125 51.3767L253.957 63.6912C254.342 65.0003 256.234 64.8794 256.45 63.532L257.013 60.0056C257.314 58.1257 260.059 58.25 260.188 60.1492L260.904 70.7039C261.01 72.2615 263.254 72.3842 263.529 70.8474L263.938 68.5583C264.14 67.4326 265.773 67.4887 265.897 68.6257C266.023 69.784 267.697 69.8115 267.861 68.658L268.747 62.4158C268.994 60.6718 271.474 60.5663 271.869 62.283C272.11 63.3321 273.633 63.2402 273.746 62.1697L274.108 58.7332L275.164 50.282C275.205 49.9538 275.347 49.6464 275.57 49.4021L275.805 49.1443C276.79 48.066 278.585 48.7623 278.585 50.2224V67.698C278.585 67.7984 278.595 67.8992 278.614 67.9978L279.122 70.6628C279.457 72.4242 281.992 72.3849 282.272 70.614L284.023 59.533L285.8 42.7058C285.809 42.6225 285.828 42.5407 285.856 42.4617C286.244 41.36 287.861 41.5726 287.951 42.7371L288.662 52.0164L288.822 55.0193C288.92 56.8498 291.596 56.9187 291.788 55.0955L292.104 52.0896C292.197 51.2082 293.425 51.0721 293.709 51.9119L294.013 52.8093C294.228 53.4428 295.154 53.3372 295.22 52.6716C295.296 51.9081 296.417 51.9329 296.459 52.699L296.913 60.9343C296.982 62.187 298.813 62.2311 298.942 60.9832C299.072 59.7304 300.914 59.7826 300.973 61.0408L301.249 66.8923C301.332 68.6514 303.882 68.786 304.15 67.0457L304.174 66.8894L304.974 55.5349C305.265 54.1025 307.358 54.2573 307.442 55.7166C307.519 57.071 309.397 57.3503 309.862 56.0759L310.179 55.2058C310.73 53.6929 312.97 54.0879 312.97 55.698V65.1941C312.97 67.0696 315.696 67.2991 316.009 65.45L317.281 52.1648C317.432 50.5883 319.686 50.4656 320.007 52.0164L321.46 60.0408C321.788 61.8486 324.406 61.7684 324.622 59.9441L325.168 55.323C325.399 53.3753 328.257 53.4734 328.354 55.4324L328.85 65.4939C328.946 67.4478 331.795 67.5526 332.035 65.6111L333.122 56.8142L334.054 49.197C334.072 49.0521 334.116 48.9114 334.183 48.782C334.736 47.7216 336.327 48.0116 336.47 49.199L337.665 59.1023C337.868 60.7885 340.269 60.9083 340.639 59.2507C341.004 57.619 343.356 57.7003 343.607 59.3533L344.991 68.4744C345.269 70.3097 347.926 70.277 348.159 68.4353L350.074 53.2957L350.677 49.075C350.702 48.9048 350.753 48.7394 350.83 48.5857L352.627 44.989C353.108 44.0291 354.378 43.8056 355.158 44.5437L356.256 45.5837C356.5 45.8145 356.665 46.1165 356.728 46.446L357.271 49.2976L359.368 58.2615C359.789 60.0615 362.42 59.8309 362.521 57.9851L363 49.2898C363.083 47.7663 365.248 47.5598 365.619 49.0398C365.996 50.5468 368.209 50.296 368.24 48.7429L368.458 37.6228L369.385 30.7273C369.412 30.5282 369.4 30.3256 369.352 30.1306L368.104 25.0759C368.064 24.912 368.05 24.7423 368.062 24.574L368.45 19.3474C368.455 19.2697 368.467 19.1921 368.484 19.116L369.351 15.2419C369.4 15.0248 369.403 14.8 369.36 14.5818L368.458 10.0349L367.706 7.0603C367.655 6.8597 367.644 6.65096 367.672 6.44604L368.203 2.65991C368.337 1.69789 367.59 0.838623 366.619 0.838623H0.629395V63.8728Z" fill="#BF4E69"/>
</svg>
