<svg width="370" height="86" viewBox="0 0 370 86" fill="none" xmlns="http://www.w3.org/2000/svg">
<path d="M0.629395 63.5884C1.18942 63.467 1.68893 63.0583 1.83545 62.355L5.13428 46.519C5.47231 44.8985 7.77414 44.8649 8.15967 46.4751C8.50911 47.9331 10.5192 48.0954 11.0981 46.7124L13.1284 41.8599C13.7255 40.4326 15.7998 40.6003 16.1597 42.105L17.7983 48.9585C18.189 50.5918 20.511 50.5961 20.9077 48.9644L21.8921 44.9136C22.291 43.272 24.6313 43.2897 25.0054 44.937L26.6802 52.3188C27.0276 53.8495 29.1424 54.0155 29.7251 52.5581L33.646 42.7505C34.2498 41.2409 36.4599 41.4908 36.7114 43.0972L42.1597 77.9087C42.4474 79.7471 45.1125 79.6953 45.3286 77.8472L47.9712 55.2183C48.181 53.4233 50.7405 53.2995 51.1226 55.0659L51.5688 57.1284C51.9211 58.7573 54.2186 58.8288 54.6714 57.2251L57.8091 46.105C58.2955 44.382 60.8138 44.6378 60.9438 46.4233L63.6812 84.0874C63.822 86.0246 66.6441 86.0826 66.8647 84.1528L71.1216 46.9312C71.3076 45.3069 73.5229 44.9754 74.1763 46.4741L75.3735 49.2202C75.9819 50.616 78.0122 50.4522 78.3892 48.9771L79.0571 46.3647C79.4844 44.6929 81.8911 44.7891 82.1831 46.4897L83.4175 53.6821C83.705 55.3544 86.0556 55.4867 86.5288 53.8569L90.7651 39.2681C91.1547 37.9261 92.9565 37.6937 93.6733 38.8931L98.2358 46.5288C98.8603 47.5737 100.377 47.5656 100.991 46.5142L104.235 40.9526C104.975 39.6853 106.888 40.0002 107.182 41.438L109.219 51.3765C109.542 52.9514 111.726 53.119 112.286 51.6118L116.427 40.4546C116.97 38.9927 119.071 39.0931 119.472 40.6001L125.449 63.0415C125.841 64.5147 127.877 64.655 128.468 63.2495L130.021 59.5562C130.671 58.0114 132.957 58.3795 133.089 60.0503L134.304 75.4048C134.452 77.2761 137.146 77.4064 137.473 75.5581L140.161 60.3931C140.428 58.8864 142.626 59.0035 142.731 60.5298C142.826 61.9102 144.728 62.2027 145.233 60.9146L147.369 55.4673C147.964 53.9485 150.185 54.1915 150.438 55.8032L151.205 60.688C151.447 62.2339 153.577 62.4665 154.147 61.0093C154.73 59.5199 156.919 59.8058 157.099 61.395L158.655 75.0874C158.872 76.998 161.657 76.9704 161.836 75.0562L164.254 49.1812C164.424 47.3673 167.01 47.2031 167.408 48.981L169.118 56.6294C169.488 58.2852 171.843 58.2999 172.235 56.6489L174.576 46.7661C174.978 45.0702 177.417 45.1492 177.708 46.8677L178.459 51.2964C178.741 52.9598 181.073 53.11 181.566 51.4966L182.906 47.103C183.426 45.3969 185.928 45.6954 186.033 47.4761L187.121 65.9194C187.234 67.8466 190.032 67.9599 190.3 66.0483L192.356 51.4097C192.615 49.5669 195.28 49.5767 195.525 51.4214L195.621 52.1362C195.858 53.9215 198.407 54.0125 198.772 52.2485L200.055 46.0386C200.392 44.411 202.679 44.3129 203.154 45.9058L203.287 46.3501C203.73 47.8369 205.817 47.8851 206.329 46.4204L207.417 43.3022C207.963 41.7351 210.24 41.9353 210.505 43.5737L213.572 62.5259C213.848 64.2309 216.256 64.3491 216.697 62.6792L220.146 49.6021C220.588 47.9272 223.054 48.247 223.054 49.979V53.1558C223.054 54.6717 225.262 54.8446 225.499 53.3472C225.732 51.8669 227.908 52.0128 227.942 53.5112L228.36 71.9614C228.399 73.6835 230.759 74.1351 231.431 72.5493L232.45 70.145C232.501 70.0249 232.537 69.8989 232.557 69.77L235.095 53.6519L235.869 50.9312C236.189 49.8051 237.788 49.8142 238.095 50.9438C238.122 51.0425 238.135 51.1443 238.135 51.2466V55.2505L238.958 64.7915C239.049 65.852 240.542 65.997 240.836 64.9741L242.627 58.7349C243.008 57.4088 244.935 57.5658 245.096 58.936C245.275 60.4524 247.49 60.4096 247.61 58.8872L248.204 51.3384C248.336 49.6607 250.716 49.4605 251.126 51.0923L253.958 63.4077C254.343 64.7165 256.235 64.5951 256.451 63.2476L257.013 59.7222C257.313 57.8421 260.06 57.9662 260.189 59.8657L260.905 70.4194C261.011 71.9773 263.254 72.1 263.529 70.563L263.938 68.2749C264.139 67.1487 265.773 67.2049 265.897 68.3423C266.023 69.5004 267.698 69.5278 267.862 68.3745L268.748 62.1323C268.995 60.388 271.475 60.2825 271.87 61.9995C272.111 63.0486 273.634 62.9559 273.747 61.8853L274.108 58.4497L275.165 49.9976C275.206 49.6694 275.348 49.3619 275.571 49.1177L275.806 48.8599C276.791 47.782 278.586 48.479 278.586 49.939V67.4146C278.586 67.5148 278.596 67.6149 278.615 67.7134L279.122 70.3794C279.457 72.1409 281.993 72.1007 282.273 70.3296L284.024 59.2495L285.801 42.4224C285.81 42.3388 285.829 42.2565 285.857 42.1772C286.245 41.0758 287.862 41.2892 287.951 42.4536L288.662 51.7329L288.822 54.7349C288.919 56.5656 291.596 56.6351 291.789 54.812L292.105 51.8062C292.198 50.9246 293.425 50.7881 293.709 51.6274L294.013 52.5259C294.228 53.1591 295.155 53.0534 295.221 52.3882C295.297 51.6246 296.418 51.6493 296.46 52.4155L296.913 60.6499C296.981 61.9027 298.813 61.9475 298.943 60.6997C299.073 59.4469 300.914 59.4983 300.973 60.7563L301.25 66.6079C301.333 68.3673 303.883 68.5021 304.151 66.7612L304.175 66.606L304.974 55.2505C305.266 53.8184 307.36 53.9738 307.443 55.4331C307.52 56.7875 309.399 57.0663 309.863 55.7915L310.179 54.9214C310.73 53.4086 312.971 53.8038 312.971 55.4136V64.9106C312.971 66.7861 315.696 67.0155 316.009 65.1665L317.282 51.8804C317.433 50.3042 319.687 50.1822 320.008 51.7329L321.46 59.7573C321.788 61.5651 324.407 61.4842 324.623 59.6597L325.168 55.0396C325.399 53.0918 328.258 53.1892 328.355 55.1479L328.851 65.2104C328.947 67.1643 331.796 67.2692 332.036 65.3276L333.123 56.5308L334.055 48.9126C334.073 48.7678 334.117 48.6269 334.184 48.4976C334.738 47.4377 336.328 47.7283 336.471 48.9155L337.665 58.8188C337.868 60.5049 340.269 60.6246 340.639 58.9673C341.004 57.3352 343.357 57.4165 343.608 59.0698L344.992 68.1909C345.27 70.0258 347.926 69.9931 348.16 68.1519L350.075 53.0122L350.677 48.7905C350.702 48.6204 350.754 48.455 350.831 48.3013L352.628 44.7056C353.108 43.7454 354.379 43.522 355.159 44.2603L356.257 45.3003C356.501 45.5309 356.665 45.8323 356.728 46.1616L357.271 49.0132L359.368 57.978C359.789 59.778 362.42 59.5474 362.522 57.7017L363 49.0063C363.084 47.4827 365.249 47.276 365.62 48.7563C365.997 50.2631 368.209 50.0125 368.24 48.4595L368.458 37.3384L369.385 30.4429C369.412 30.244 369.401 30.042 369.353 29.8472L368.105 24.7915C368.065 24.6278 368.051 24.4587 368.063 24.2905L368.45 19.064C368.455 18.9861 368.467 18.9087 368.484 18.8325L369.352 14.9585C369.401 14.7412 369.403 14.5158 369.36 14.2974L368.458 9.75146L367.707 6.77588C367.656 6.57547 367.645 6.36732 367.673 6.1626L368.204 2.37646C368.338 1.41437 367.591 0.555222 366.62 0.555176H0.629395V63.5884Z" fill="#C16E12"/>
</svg>
